<svg 
 xmlns="http://www.w3.org/2000/svg"
 xmlns:xlink="http://www.w3.org/1999/xlink"
 width="2637px" height="1652px">
<path fill-rule="evenodd"  fill="rgb(0, 0, 0)"
 d="M2588.373,1284.830 C2558.973,1321.065 2458.081,1317.378 2471.215,1291.619 C2507.323,1220.802 2527.158,1159.844 2521.023,1089.458 C2502.741,879.704 2322.504,848.847 2255.642,849.110 C2147.115,849.539 2064.676,875.662 2008.366,927.459 C1965.908,966.528 1943.077,1030.601 1929.479,1118.274 C1912.764,1226.028 1797.369,1212.187 1793.238,1117.327 C1791.319,1073.276 1792.841,962.433 1792.841,917.986 C1792.841,803.510 1663.235,814.757 1663.235,917.260 C1663.235,1051.890 1664.641,1143.233 1664.196,1199.170 C1663.834,1244.748 1700.996,1286.637 1721.168,1291.619 C1776.507,1305.289 1860.250,1294.905 1861.802,1332.638 C1862.838,1357.858 1698.099,1348.092 1637.496,1340.984 C1577.304,1333.924 1524.450,1288.854 1524.450,1182.670 C1524.450,1064.991 1522.905,831.585 1516.547,702.599 C1510.715,584.328 1447.982,645.094 1413.814,710.502 C1384.185,767.218 1332.918,862.850 1292.627,917.629 C1257.118,965.907 1157.117,999.856 1110.593,932.429 C970.380,729.218 908.515,561.809 898.1000,941.000 C895.037,1099.149 865.064,1290.446 824.1000,1328.000 C784.938,1365.553 745.159,1350.934 657.145,1234.034 C607.733,1168.408 377.074,833.631 334.962,828.385 C284.992,822.161 166.053,877.739 159.417,896.651 C152.782,915.563 150.142,1180.037 150.142,1246.527 C150.142,1382.495 3.945,1377.539 3.945,1242.577 C3.945,1068.688 0.749,295.896 -0.007,104.489 C-0.531,-27.270 146.192,-37.719 146.192,98.561 C146.192,204.679 148.135,536.138 148.135,670.328 C148.135,733.310 267.489,715.144 295.951,672.350 C382.572,542.109 502.520,369.741 564.879,267.503 C799.840,-117.719 895.443,-72.005 994.000,323.000 C1016.999,415.182 1053.832,567.801 1095.1000,640.1000 C1167.013,764.278 1226.415,775.354 1285.1000,651.000 C1339.715,538.892 1415.899,385.536 1480.986,258.090 C1601.906,21.315 1844.349,-18.512 2081.542,8.335 C2114.271,12.040 2128.281,50.183 2087.402,58.143 C1970.816,80.845 1627.444,93.973 1621.256,429.967 C1614.115,817.614 2499.837,885.951 2522.880,479.039 C2528.372,382.040 2471.887,248.257 2499.1000,238.000 C2529.908,227.090 2606.081,294.979 2617.038,343.790 C2628.835,396.342 2630.958,468.200 2630.981,481.964 C2631.714,913.691 2656.716,1200.598 2588.373,1284.830 ZM716.1000,278.1000 C665.917,362.202 528.987,564.386 488.1000,628.1000 C438.906,709.950 486.765,783.518 519.030,829.731 C545.851,868.146 656.491,1004.656 713.121,1087.459 C738.509,1124.578 753.700,1107.211 755.039,1077.050 C761.827,924.176 795.902,399.100 803.544,286.730 C807.829,223.722 739.978,241.573 716.1000,278.1000 ZM1756.360,404.482 C1754.113,131.625 2414.363,79.383 2414.369,438.950 C2417.784,706.435 1758.987,713.558 1756.360,404.482 ZM8.596,1437.736 C11.474,1434.950 15.147,1433.557 19.618,1433.565 C23.449,1433.572 26.836,1434.977 29.787,1437.773 C32.734,1440.573 34.205,1444.047 34.198,1448.196 L33.978,1573.182 L96.472,1573.292 C100.621,1573.299 104.090,1574.622 106.881,1577.261 C109.667,1579.899 111.060,1583.295 111.053,1587.444 C111.046,1591.436 109.641,1594.744 106.845,1597.373 C104.046,1600.002 100.572,1601.313 96.423,1601.306 L18.604,1601.169 C14.452,1601.161 10.982,1599.760 8.196,1596.960 C5.406,1594.164 4.017,1590.690 4.024,1586.537 L4.268,1448.144 C4.275,1443.995 5.718,1440.525 8.596,1437.736 ZM150.354,1432.598 C157.216,1432.610 162.681,1434.936 166.744,1439.571 C170.806,1444.209 172.830,1450.356 172.817,1458.018 C172.808,1463.285 171.321,1468.592 168.359,1473.932 C165.394,1479.277 161.555,1483.737 156.843,1487.321 C152.126,1490.904 147.136,1492.691 141.868,1492.682 C140.110,1492.678 138.237,1491.957 136.245,1490.517 C134.250,1489.077 133.259,1486.602 133.265,1483.089 C133.272,1479.419 134.431,1477.225 136.749,1476.511 C139.062,1475.796 141.020,1475.044 142.619,1474.246 C144.693,1473.135 146.334,1471.821 147.534,1470.304 C148.734,1468.791 149.336,1466.918 149.340,1464.681 C149.343,1462.926 148.508,1461.368 146.834,1460.007 C145.160,1458.650 142.966,1457.965 140.253,1457.961 C139.295,1457.959 138.177,1458.077 136.900,1458.314 C135.620,1458.551 134.505,1458.990 133.546,1459.625 C131.950,1458.825 130.556,1457.824 129.361,1456.624 C128.166,1455.425 127.571,1453.471 127.575,1450.755 C127.584,1445.809 129.866,1441.541 134.422,1437.957 C138.978,1434.374 144.286,1432.587 150.354,1432.598 ZM224.977,1479.539 C233.764,1473.890 243.508,1471.072 254.204,1471.091 C261.065,1471.103 267.371,1472.154 273.114,1474.237 C278.857,1476.323 283.840,1478.966 288.065,1482.164 C289.793,1483.475 291.319,1484.793 292.727,1486.115 L292.728,1485.764 C292.735,1481.615 294.096,1478.146 296.817,1475.356 C299.534,1472.570 302.967,1471.176 307.120,1471.184 C311.269,1471.191 314.698,1472.555 317.409,1475.272 C320.117,1477.993 321.468,1481.505 321.461,1485.815 L321.283,1587.096 C321.275,1591.248 319.911,1594.718 317.194,1597.504 C314.473,1600.294 311.040,1601.683 306.890,1601.676 C302.738,1601.669 299.309,1600.267 296.602,1597.468 C293.947,1594.730 292.608,1591.338 292.560,1587.299 C290.594,1589.468 288.197,1591.613 285.355,1593.737 C281.519,1596.603 277.002,1599.031 271.814,1601.016 C266.621,1603.001 260.992,1603.990 254.928,1603.979 C243.914,1603.960 233.941,1601.110 225.013,1595.426 C216.081,1589.746 209.031,1581.911 203.864,1571.924 C198.692,1561.941 196.119,1550.481 196.142,1537.552 C196.165,1524.465 198.778,1512.936 203.985,1502.967 C209.188,1493.002 216.187,1485.192 224.977,1479.539 ZM228.072,1557.960 C231.013,1564.033 235.116,1568.829 240.378,1572.348 C245.639,1575.870 251.701,1577.635 258.566,1577.647 C265.588,1577.660 271.738,1575.916 277.012,1572.412 C282.286,1568.912 286.402,1564.131 289.368,1558.068 C292.331,1552.009 293.821,1545.228 293.834,1537.724 C293.847,1530.062 292.382,1523.198 289.440,1517.124 C286.495,1511.055 282.396,1506.259 277.134,1502.737 C271.873,1499.218 265.729,1497.449 258.707,1497.437 C251.842,1497.424 245.774,1499.172 240.500,1502.672 C235.226,1506.176 231.106,1510.957 228.144,1517.016 C225.177,1523.079 223.691,1529.938 223.678,1537.600 C223.665,1545.105 225.127,1551.890 228.072,1557.960 ZM354.278,1477.851 C356.996,1475.065 360.429,1473.672 364.582,1473.679 C368.731,1473.687 372.159,1475.092 374.870,1477.887 C377.578,1480.687 378.930,1484.161 378.922,1488.310 L378.815,1549.127 C378.798,1558.865 380.940,1566.093 385.242,1570.807 C389.544,1575.525 396.004,1577.889 404.624,1577.904 C413.401,1577.920 419.953,1575.578 424.271,1570.876 C428.589,1566.177 430.757,1558.956 430.774,1549.218 L430.881,1488.402 C430.888,1484.253 432.249,1480.783 434.970,1477.993 C437.687,1475.207 441.120,1473.814 445.273,1473.821 C449.422,1473.829 452.850,1475.234 455.561,1478.029 C458.269,1480.829 459.621,1484.303 459.614,1488.452 L459.507,1549.269 C459.477,1566.190 454.743,1579.590 445.309,1589.469 C435.871,1599.351 422.296,1604.273 404.578,1604.242 C386.859,1604.211 373.340,1599.241 364.019,1589.326 C354.698,1579.414 350.053,1565.997 350.082,1549.076 L350.189,1488.260 C350.197,1484.111 351.557,1480.641 354.278,1477.851 ZM492.199,1476.298 L503.213,1476.318 L503.240,1460.994 C503.248,1456.845 504.649,1453.375 507.449,1450.586 C510.245,1447.800 513.719,1446.407 517.872,1446.414 C522.021,1446.421 525.412,1447.826 528.041,1450.622 C530.670,1453.421 531.980,1456.895 531.973,1461.044 L531.946,1476.368 L548.946,1476.398 C552.777,1476.405 555.966,1477.690 558.517,1480.246 C561.064,1482.806 562.338,1485.999 562.331,1489.830 C562.325,1493.504 561.040,1496.573 558.484,1499.042 C555.924,1501.514 552.731,1502.743 548.900,1502.736 L531.900,1502.706 L531.786,1567.593 C531.782,1569.830 532.216,1571.664 533.093,1573.102 C533.966,1574.540 535.161,1575.583 536.679,1576.221 C538.193,1576.864 539.827,1577.185 541.586,1577.188 C543.501,1577.191 545.257,1576.835 546.855,1576.120 C548.450,1575.404 550.288,1575.048 552.364,1575.052 C554.598,1575.056 556.631,1576.099 558.465,1578.175 C560.294,1580.255 561.209,1583.130 561.203,1586.800 C561.195,1591.270 558.753,1594.936 553.881,1597.801 C549.004,1600.665 543.775,1602.093 538.190,1602.083 C534.838,1602.077 531.127,1601.794 527.057,1601.225 C522.988,1600.661 519.159,1599.296 515.571,1597.135 C511.983,1594.974 508.996,1591.657 506.610,1587.182 C504.223,1582.711 503.037,1576.562 503.051,1568.740 L503.167,1502.655 L492.153,1502.636 C488.322,1502.629 485.129,1501.348 482.582,1498.788 C480.031,1496.232 478.761,1493.035 478.768,1489.204 C478.774,1485.534 480.055,1482.465 482.615,1479.993 C485.171,1477.524 488.368,1476.291 492.199,1476.298 ZM592.761,1478.271 C595.478,1475.485 598.911,1474.092 603.064,1474.099 C607.213,1474.106 610.641,1475.512 613.353,1478.307 C616.060,1481.107 617.412,1484.581 617.405,1488.730 L617.399,1491.975 C618.862,1489.443 620.574,1487.120 622.559,1485.028 C625.355,1482.081 628.514,1479.613 632.030,1477.622 C635.543,1475.634 639.298,1474.163 643.292,1473.212 C647.282,1472.261 651.274,1471.789 655.266,1471.796 C660.055,1471.805 664.082,1473.170 667.351,1475.888 C670.616,1478.610 672.249,1481.804 672.242,1485.474 C672.233,1490.742 670.868,1494.533 668.152,1496.840 C665.432,1499.151 662.478,1500.302 659.287,1500.296 C656.252,1500.291 653.500,1499.729 651.029,1498.606 C648.554,1497.487 645.723,1496.920 642.532,1496.915 C639.658,1496.910 636.743,1497.586 633.788,1498.935 C630.830,1500.288 628.114,1502.397 625.636,1505.265 C623.155,1508.134 621.154,1511.685 619.632,1515.910 C618.105,1520.138 617.341,1525.124 617.331,1530.870 L617.231,1587.617 C617.223,1591.769 615.859,1595.239 613.142,1598.025 C610.421,1600.815 606.988,1602.204 602.839,1602.197 C598.686,1602.190 595.258,1600.788 592.550,1597.989 C589.839,1595.193 588.491,1591.719 588.498,1587.566 L588.672,1488.679 C588.679,1484.530 590.040,1481.061 592.761,1478.271 ZM712.957,1480.039 C722.383,1474.631 732.366,1471.932 742.901,1471.951 C751.042,1471.965 758.739,1473.655 765.998,1477.020 C773.254,1480.384 779.670,1484.986 785.249,1490.821 C790.825,1496.660 795.242,1503.409 798.502,1511.077 C801.759,1518.744 803.383,1526.888 803.368,1535.508 C803.200,1539.338 801.680,1542.448 798.802,1544.838 C795.925,1547.227 792.570,1548.418 788.739,1548.411 L709.716,1548.272 C710.581,1552.670 712.041,1556.632 714.133,1560.132 C717.714,1566.124 722.334,1570.682 727.996,1573.805 C733.655,1576.927 739.680,1578.494 746.066,1578.505 C751.970,1578.516 756.681,1578.045 760.195,1577.094 C763.706,1576.142 766.544,1574.991 768.702,1573.637 C770.859,1572.286 772.814,1571.130 774.574,1570.175 C777.450,1568.744 780.163,1568.030 782.719,1568.035 C786.228,1568.041 789.140,1569.243 791.452,1571.642 C793.760,1574.040 794.915,1576.837 794.909,1580.028 C794.902,1584.338 792.657,1588.247 788.184,1591.748 C784.025,1595.254 778.195,1598.315 770.689,1600.936 C763.179,1603.557 755.436,1604.860 747.456,1604.846 C733.887,1604.822 722.118,1601.969 712.154,1596.284 C702.186,1590.602 694.537,1582.885 689.208,1573.138 C683.875,1563.394 681.223,1552.375 681.245,1540.081 C681.270,1525.715 684.203,1513.472 690.049,1503.344 C695.892,1493.219 703.527,1485.451 712.957,1480.039 ZM772.739,1524.440 L772.742,1522.764 C772.428,1518.135 770.801,1513.983 767.855,1510.304 C764.906,1506.629 761.241,1503.708 756.856,1501.546 C752.468,1499.383 747.801,1498.297 742.855,1498.289 C738.066,1498.280 733.594,1498.912 729.443,1500.180 C725.288,1501.453 721.692,1503.601 718.657,1506.626 C715.617,1509.655 713.216,1513.721 711.452,1518.825 C710.870,1520.508 710.393,1522.352 710.001,1524.329 L772.739,1524.440 ZM901.406,1474.624 C904.437,1474.629 907.230,1475.394 909.783,1476.913 C912.332,1478.437 914.243,1480.715 915.517,1483.747 L948.462,1559.411 L981.363,1484.103 C984.087,1477.725 988.323,1474.698 994.069,1475.027 C998.058,1475.034 1001.288,1476.278 1003.760,1478.755 C1006.229,1481.236 1007.462,1484.310 1007.455,1487.980 C1007.453,1489.098 1007.249,1490.295 1006.850,1491.570 C1006.448,1492.849 1006.008,1494.045 1005.527,1495.159 L960.578,1593.728 C958.013,1599.470 953.937,1602.497 948.351,1602.805 C945.316,1603.278 942.402,1602.716 939.614,1601.114 C936.822,1599.515 934.713,1597.034 933.282,1593.680 L888.920,1494.954 C888.599,1494.157 888.242,1493.120 887.848,1491.840 C887.450,1490.563 887.254,1489.048 887.257,1487.289 C887.262,1484.416 888.543,1481.586 891.103,1478.796 C893.660,1476.010 897.097,1474.616 901.406,1474.624 ZM1055.236,1481.000 C1065.063,1475.354 1076.041,1472.537 1088.174,1472.558 C1100.303,1472.580 1111.275,1475.435 1121.082,1481.116 C1130.889,1486.801 1138.695,1494.638 1144.506,1504.622 C1150.314,1514.610 1153.208,1526.149 1153.185,1539.236 C1153.162,1552.326 1150.227,1563.855 1144.384,1573.819 C1138.538,1583.787 1130.705,1591.554 1120.878,1597.123 C1111.051,1602.695 1100.069,1605.466 1087.940,1605.445 C1075.807,1605.424 1064.839,1602.613 1055.032,1597.007 C1045.225,1591.404 1037.415,1583.609 1031.608,1573.621 C1025.796,1563.636 1022.906,1552.097 1022.929,1539.007 C1022.952,1525.920 1025.883,1514.391 1031.730,1504.424 C1037.572,1494.460 1045.409,1486.651 1055.236,1481.000 ZM1056.534,1560.017 C1059.793,1566.008 1064.177,1570.685 1069.678,1574.047 C1075.179,1577.409 1081.282,1579.095 1087.986,1579.107 C1094.691,1579.119 1100.800,1577.454 1106.313,1574.111 C1111.826,1570.769 1116.222,1566.108 1119.506,1560.127 C1122.787,1554.147 1124.438,1547.169 1124.452,1539.185 C1124.466,1531.045 1122.840,1523.978 1119.581,1517.987 C1116.318,1511.995 1111.937,1507.318 1106.436,1503.957 C1100.935,1500.595 1094.832,1498.908 1088.128,1498.896 C1081.423,1498.884 1075.315,1500.550 1069.802,1503.892 C1064.289,1507.235 1059.888,1511.896 1056.608,1517.876 C1053.324,1523.856 1051.676,1530.917 1051.662,1539.057 C1051.648,1547.041 1053.271,1554.025 1056.534,1560.017 ZM1182.502,1479.309 C1185.219,1476.523 1188.652,1475.130 1192.805,1475.137 C1196.954,1475.144 1200.382,1476.549 1203.094,1479.345 C1205.801,1482.145 1207.153,1485.619 1207.146,1489.768 L1207.038,1551.063 C1207.020,1561.441 1209.282,1568.748 1213.823,1572.984 C1218.365,1577.223 1224.707,1579.348 1232.848,1579.362 C1238.433,1579.372 1243.146,1578.303 1246.980,1576.155 C1250.815,1574.006 1253.773,1570.820 1255.857,1566.593 C1257.937,1562.369 1258.986,1557.223 1258.997,1551.155 L1259.104,1489.859 C1259.112,1485.710 1260.472,1482.241 1263.193,1479.451 C1265.911,1476.665 1269.344,1475.272 1273.497,1475.279 C1277.646,1475.286 1281.074,1476.691 1283.785,1479.487 C1286.493,1482.287 1287.845,1485.761 1287.837,1489.910 L1287.658,1591.670 C1287.632,1606.354 1284.858,1618.040 1279.336,1626.733 C1273.813,1635.421 1266.417,1641.675 1257.154,1645.489 C1247.888,1649.304 1237.510,1651.201 1226.017,1651.181 C1220.907,1651.172 1215.482,1650.762 1209.737,1649.955 C1203.992,1649.144 1199.284,1647.939 1195.617,1646.339 C1190.831,1644.254 1187.521,1641.655 1185.694,1638.540 C1183.862,1635.424 1183.509,1632.108 1184.634,1628.601 C1186.078,1623.972 1188.396,1620.826 1191.594,1619.156 C1194.788,1617.485 1198.141,1617.289 1201.651,1618.575 C1204.202,1619.376 1207.552,1620.620 1211.701,1622.304 C1215.848,1623.987 1220.635,1624.833 1226.063,1624.843 C1233.404,1624.856 1239.511,1623.868 1244.386,1621.882 C1249.257,1619.893 1252.933,1616.547 1255.418,1611.845 C1257.899,1607.140 1259.149,1600.718 1259.163,1592.577 L1259.168,1590.041 C1257.587,1591.990 1255.873,1593.757 1254.010,1595.322 C1249.934,1598.749 1245.099,1601.333 1239.510,1603.078 C1233.918,1604.823 1227.534,1605.691 1220.351,1605.678 C1211.888,1605.663 1204.510,1603.694 1198.213,1599.773 C1191.912,1595.852 1187.013,1590.415 1183.516,1583.465 C1180.015,1576.516 1178.274,1568.574 1178.290,1559.632 L1178.413,1489.717 C1178.420,1485.568 1179.781,1482.099 1182.502,1479.309 ZM1341.726,1481.505 C1350.513,1475.856 1360.257,1473.037 1370.953,1473.056 C1377.814,1473.068 1384.120,1474.119 1389.863,1476.202 C1395.606,1478.289 1400.588,1480.931 1404.814,1484.130 C1406.542,1485.440 1408.068,1486.758 1409.476,1488.081 L1409.477,1487.729 C1409.484,1483.581 1410.845,1480.111 1413.566,1477.321 C1416.283,1474.535 1419.716,1473.142 1423.869,1473.149 C1428.018,1473.157 1431.447,1474.521 1434.158,1477.238 C1436.866,1479.959 1438.217,1483.470 1438.210,1487.780 L1438.032,1589.061 C1438.024,1593.214 1436.660,1596.683 1433.943,1599.469 C1431.222,1602.259 1427.788,1603.649 1423.639,1603.641 C1419.487,1603.634 1416.058,1602.233 1413.351,1599.433 C1410.696,1596.696 1409.357,1593.303 1409.309,1589.264 C1407.343,1591.434 1404.946,1593.579 1402.104,1595.702 C1398.268,1598.569 1393.751,1600.996 1388.563,1602.981 C1383.370,1604.966 1377.741,1605.955 1371.677,1605.944 C1360.662,1605.925 1350.690,1603.075 1341.762,1597.392 C1332.830,1591.712 1325.780,1583.877 1320.612,1573.890 C1315.441,1563.907 1312.868,1552.447 1312.891,1539.517 C1312.914,1526.430 1315.527,1514.901 1320.734,1504.932 C1325.937,1494.968 1332.935,1487.157 1341.726,1481.505 ZM1344.821,1559.925 C1347.762,1565.999 1351.865,1570.795 1357.126,1574.313 C1362.388,1577.835 1368.449,1579.601 1375.315,1579.613 C1382.337,1579.625 1388.487,1577.881 1393.761,1574.378 C1399.035,1570.878 1403.151,1566.096 1406.117,1560.033 C1409.080,1553.974 1410.570,1547.194 1410.583,1539.689 C1410.596,1532.027 1409.131,1525.163 1406.189,1519.090 C1403.244,1513.020 1399.145,1508.224 1393.883,1504.702 C1388.622,1501.184 1382.478,1499.414 1375.456,1499.402 C1368.591,1499.390 1362.523,1501.138 1357.249,1504.638 C1351.975,1508.141 1347.855,1512.923 1344.893,1518.982 C1341.926,1525.045 1340.440,1531.904 1340.427,1539.566 C1340.414,1547.070 1341.876,1553.856 1344.821,1559.925 ZM1492.574,1481.770 C1501.521,1476.122 1511.504,1473.303 1522.519,1473.323 C1529.223,1473.335 1535.364,1474.386 1540.950,1476.468 C1546.532,1478.554 1551.357,1481.196 1555.422,1484.395 C1558.082,1486.490 1560.327,1488.603 1562.235,1490.729 L1562.240,1487.998 C1562.247,1483.849 1563.608,1480.380 1566.329,1477.590 C1569.046,1474.804 1572.479,1473.411 1576.632,1473.418 C1580.781,1473.425 1584.209,1474.789 1586.921,1477.507 C1589.628,1480.227 1590.980,1483.739 1590.973,1488.049 L1590.785,1594.598 C1590.761,1608.485 1587.748,1619.613 1581.747,1627.983 C1575.747,1636.353 1567.872,1642.403 1558.131,1646.139 C1548.385,1649.870 1537.925,1651.730 1526.754,1651.710 C1523.559,1651.705 1519.411,1651.297 1514.305,1650.491 C1509.196,1649.681 1504.330,1648.715 1499.704,1647.592 C1495.075,1646.465 1491.567,1645.423 1489.175,1644.461 C1484.389,1642.376 1481.079,1639.778 1479.251,1636.662 C1477.420,1633.546 1477.067,1630.231 1478.191,1626.723 C1479.636,1622.094 1481.954,1618.948 1485.152,1617.278 C1488.346,1615.607 1491.699,1615.411 1495.209,1616.697 C1496.802,1617.179 1499.435,1618.141 1503.106,1619.584 C1506.774,1621.027 1510.801,1622.351 1515.191,1623.556 C1519.577,1624.761 1523.448,1625.366 1526.800,1625.372 C1538.772,1625.393 1547.636,1623.015 1553.391,1618.236 C1559.146,1613.457 1562.031,1606.837 1562.046,1598.378 L1562.066,1586.703 C1561.938,1586.887 1561.843,1587.056 1561.706,1587.244 C1559.546,1590.195 1556.585,1593.101 1552.831,1595.967 C1549.074,1598.834 1544.640,1601.262 1539.530,1603.247 C1534.416,1605.232 1528.989,1606.221 1523.242,1606.211 C1511.906,1606.191 1501.698,1603.341 1492.609,1597.657 C1483.520,1591.977 1476.351,1584.142 1471.101,1574.155 C1465.851,1564.171 1463.237,1552.711 1463.260,1539.782 C1463.283,1526.695 1465.937,1515.166 1471.222,1505.197 C1476.507,1495.233 1483.622,1487.422 1492.574,1481.770 ZM1495.309,1560.190 C1498.329,1566.264 1502.552,1571.060 1507.974,1574.579 C1513.393,1578.101 1519.697,1579.867 1526.880,1579.880 C1534.221,1579.892 1540.610,1578.149 1546.045,1574.646 C1551.476,1571.146 1555.716,1566.365 1558.761,1560.302 C1561.802,1554.243 1563.333,1547.463 1563.346,1539.958 C1563.359,1532.296 1561.852,1525.432 1558.833,1519.358 C1555.809,1513.289 1551.586,1508.493 1546.168,1504.970 C1540.745,1501.451 1534.362,1499.682 1527.022,1499.669 C1519.838,1499.656 1513.528,1501.403 1508.097,1504.903 C1502.662,1508.406 1498.422,1513.188 1495.381,1519.247 C1492.336,1525.310 1490.809,1532.168 1490.795,1539.830 C1490.782,1547.335 1492.285,1554.120 1495.309,1560.190 ZM1642.943,1481.676 C1652.369,1476.267 1662.352,1473.569 1672.887,1473.588 C1681.028,1473.602 1688.725,1475.291 1695.984,1478.656 C1703.240,1482.021 1709.656,1486.623 1715.235,1492.458 C1720.810,1498.296 1725.228,1505.046 1728.488,1512.713 C1731.745,1520.381 1733.369,1528.525 1733.354,1537.144 C1733.186,1540.975 1731.665,1544.085 1728.788,1546.474 C1725.910,1548.864 1722.556,1550.055 1718.725,1550.048 L1639.702,1549.909 C1640.567,1554.306 1642.027,1558.269 1644.119,1561.769 C1647.700,1567.761 1652.320,1572.319 1657.982,1575.441 C1663.641,1578.564 1669.665,1580.131 1676.052,1580.142 C1681.955,1580.153 1686.666,1579.682 1690.181,1578.730 C1693.692,1577.779 1696.530,1576.628 1698.687,1575.274 C1700.845,1573.923 1702.800,1572.767 1704.560,1571.812 C1707.436,1570.380 1710.149,1569.667 1712.705,1569.671 C1716.214,1569.678 1719.126,1570.880 1721.438,1573.278 C1723.746,1575.677 1724.901,1578.473 1724.895,1581.665 C1724.887,1585.975 1722.643,1589.884 1718.170,1593.385 C1714.011,1596.891 1708.180,1599.952 1700.675,1602.573 C1693.165,1605.193 1685.422,1606.497 1677.442,1606.483 C1663.872,1606.459 1652.104,1603.606 1642.139,1597.920 C1632.171,1592.239 1624.523,1584.522 1619.194,1574.774 C1613.861,1565.030 1611.209,1554.012 1611.231,1541.718 C1611.256,1527.352 1614.188,1515.109 1620.035,1504.980 C1625.878,1494.856 1633.513,1487.087 1642.943,1481.676 ZM1702.725,1526.077 L1702.728,1524.400 C1702.414,1519.772 1700.786,1515.620 1697.841,1511.941 C1694.892,1508.266 1691.227,1505.345 1686.842,1503.182 C1682.454,1501.020 1677.787,1499.934 1672.841,1499.925 C1668.052,1499.917 1663.580,1500.549 1659.429,1501.817 C1655.274,1503.089 1651.678,1505.238 1648.642,1508.263 C1645.603,1511.292 1643.201,1515.358 1641.438,1520.462 C1640.855,1522.144 1640.378,1523.989 1639.987,1525.966 L1702.725,1526.077 ZM1884.323,1467.974 C1883.523,1467.972 1882.647,1467.851 1881.690,1467.610 C1880.733,1467.369 1879.776,1467.008 1878.819,1466.527 L1854.897,1453.795 C1852.026,1452.196 1849.834,1450.277 1848.322,1448.037 C1846.807,1445.801 1846.056,1443.484 1846.060,1441.090 C1846.066,1437.419 1847.508,1434.549 1850.385,1432.477 C1853.262,1430.410 1856.055,1429.375 1858.771,1429.380 C1861.005,1429.383 1863.117,1429.907 1865.113,1430.947 C1867.106,1431.991 1868.899,1433.228 1870.494,1434.668 L1891.054,1452.901 C1893.284,1454.981 1894.399,1457.138 1894.395,1459.372 C1894.390,1461.927 1893.466,1464.002 1891.630,1465.592 C1889.791,1467.186 1887.354,1467.979 1884.323,1467.974 ZM1848.382,1482.396 C1857.169,1476.748 1866.912,1473.929 1877.608,1473.948 C1884.470,1473.960 1890.776,1475.011 1896.519,1477.094 C1902.262,1479.180 1907.244,1481.823 1911.470,1485.021 C1913.197,1486.332 1914.724,1487.650 1916.132,1488.972 L1916.133,1488.621 C1916.140,1484.472 1917.500,1481.003 1920.221,1478.213 C1922.939,1475.427 1926.372,1474.034 1930.525,1474.041 C1934.674,1474.048 1938.102,1475.412 1940.813,1478.129 C1943.521,1480.850 1944.873,1484.362 1944.865,1488.672 L1944.687,1589.953 C1944.680,1594.106 1943.316,1597.575 1940.598,1600.361 C1937.877,1603.151 1934.444,1604.540 1930.295,1604.533 C1926.142,1604.526 1922.714,1603.124 1920.006,1600.325 C1917.352,1597.587 1916.012,1594.195 1915.964,1590.156 C1913.998,1592.325 1911.601,1594.470 1908.759,1596.594 C1904.923,1599.460 1900.407,1601.888 1895.218,1603.873 C1890.025,1605.858 1884.397,1606.847 1878.332,1606.836 C1867.318,1606.817 1857.345,1603.967 1848.417,1598.283 C1839.486,1592.604 1832.436,1584.768 1827.268,1574.782 C1822.096,1564.798 1819.524,1553.338 1819.547,1540.409 C1819.570,1527.322 1822.183,1515.793 1827.389,1505.824 C1832.592,1495.859 1839.591,1488.049 1848.382,1482.396 ZM1851.476,1560.817 C1854.417,1566.890 1858.521,1571.686 1863.782,1575.205 C1869.044,1578.727 1875.105,1580.492 1881.970,1580.505 C1888.993,1580.517 1895.143,1578.773 1900.416,1575.269 C1905.690,1571.769 1909.807,1566.988 1912.773,1560.925 C1915.735,1554.866 1917.225,1548.086 1917.238,1540.581 C1917.252,1532.919 1915.786,1526.055 1912.845,1519.982 C1909.900,1513.912 1905.800,1509.116 1900.539,1505.594 C1895.278,1502.075 1889.134,1500.306 1882.111,1500.294 C1875.246,1500.282 1869.179,1502.029 1863.905,1505.529 C1858.631,1509.033 1854.511,1513.814 1851.548,1519.874 C1848.582,1525.937 1847.096,1532.795 1847.082,1540.457 C1847.069,1547.962 1848.531,1554.747 1851.476,1560.817 ZM2273.342,967.455 C2345.094,966.074 2404.175,1016.311 2404.550,1111.396 C2404.777,1167.902 2342.778,1191.923 2313.204,1199.210 C2253.283,1213.974 2343.237,1306.487 2274.195,1325.989 C2222.667,1340.543 2101.241,1356.987 2059.640,1316.236 C2018.039,1275.485 1977.375,973.147 2273.342,967.455 ZM2047.120,1480.831 C2049.838,1478.045 2053.271,1476.651 2057.424,1476.659 C2061.573,1476.666 2065.001,1478.071 2067.712,1480.867 C2070.420,1483.666 2071.772,1487.141 2071.764,1491.289 L2071.757,1495.234 C2072.500,1494.220 2073.284,1493.192 2074.157,1492.132 C2076.714,1489.024 2079.832,1486.118 2083.511,1483.409 C2087.186,1480.703 2091.260,1478.514 2095.734,1476.846 C2100.204,1475.178 2105.077,1474.348 2110.344,1474.357 C2123.113,1474.380 2132.524,1477.472 2138.582,1483.625 C2143.183,1488.305 2146.578,1494.027 2148.779,1500.776 C2150.702,1497.307 2153.500,1493.603 2157.248,1489.644 C2161.243,1485.424 2166.080,1481.841 2171.753,1478.895 C2177.422,1475.953 2183.770,1474.487 2190.796,1474.499 C2202.289,1474.519 2211.024,1477.011 2217.002,1481.968 C2222.979,1486.928 2227.075,1493.519 2229.298,1501.743 C2231.517,1509.970 2232.620,1519.108 2232.602,1529.164 L2232.494,1590.459 C2232.487,1594.612 2231.123,1598.082 2228.405,1600.868 C2225.684,1603.658 2222.251,1605.047 2218.102,1605.040 C2213.949,1605.032 2210.521,1603.631 2207.813,1600.831 C2205.102,1598.036 2203.754,1594.562 2203.761,1590.409 L2203.869,1529.113 C2203.879,1523.846 2203.247,1519.097 2201.979,1514.864 C2200.707,1510.634 2198.401,1507.237 2195.053,1504.675 C2191.705,1502.118 2186.919,1500.830 2180.693,1500.819 C2174.625,1500.809 2169.437,1502.079 2165.123,1504.623 C2160.809,1507.170 2157.570,1510.558 2155.408,1514.782 C2153.245,1519.009 2152.159,1523.755 2152.150,1529.022 L2152.042,1590.318 C2152.035,1594.471 2150.671,1597.940 2147.953,1600.726 C2145.232,1603.516 2141.799,1604.905 2137.650,1604.898 C2133.497,1604.891 2130.069,1603.489 2127.362,1600.690 C2124.650,1597.894 2123.302,1594.420 2123.309,1590.267 L2123.417,1528.972 C2123.427,1523.704 2122.795,1518.956 2121.527,1514.722 C2120.255,1510.492 2117.949,1507.095 2114.601,1504.534 C2111.253,1501.976 2106.467,1500.689 2100.241,1500.678 C2094.173,1500.667 2088.985,1501.937 2084.671,1504.481 C2080.357,1507.029 2077.118,1510.416 2074.956,1514.640 C2072.793,1518.868 2071.708,1523.613 2071.698,1528.881 L2071.590,1590.176 C2071.583,1594.329 2070.219,1597.798 2067.502,1600.585 C2064.780,1603.374 2061.347,1604.764 2057.198,1604.757 C2053.045,1604.749 2049.617,1603.348 2046.910,1600.548 C2044.198,1597.753 2042.850,1594.278 2042.858,1590.126 L2043.032,1491.239 C2043.039,1487.090 2044.399,1483.621 2047.120,1480.831 ZM2290.029,1483.174 C2299.856,1477.527 2310.834,1474.710 2322.967,1474.732 C2335.096,1474.753 2346.068,1477.608 2355.875,1483.290 C2365.682,1488.975 2373.488,1496.811 2379.299,1506.796 C2385.107,1516.783 2388.001,1528.323 2387.978,1541.409 C2387.955,1554.500 2385.020,1566.029 2379.177,1575.992 C2373.331,1585.960 2365.498,1593.728 2355.671,1599.296 C2345.844,1604.868 2334.862,1607.640 2322.733,1607.618 C2310.600,1607.597 2299.632,1604.787 2289.825,1599.180 C2280.018,1593.577 2272.209,1585.782 2266.401,1575.794 C2260.590,1565.810 2257.699,1554.270 2257.722,1541.180 C2257.745,1528.093 2260.676,1516.564 2266.523,1506.597 C2272.365,1496.633 2280.202,1488.824 2290.029,1483.174 ZM2291.327,1562.190 C2294.586,1568.181 2298.970,1572.858 2304.471,1576.220 C2309.973,1579.582 2316.075,1581.269 2322.780,1581.280 C2329.484,1581.292 2335.593,1579.627 2341.106,1576.284 C2346.619,1572.942 2351.015,1568.281 2354.299,1562.301 C2357.580,1556.321 2359.231,1549.342 2359.245,1541.359 C2359.259,1533.218 2357.633,1526.152 2354.374,1520.160 C2351.111,1514.168 2346.730,1509.492 2341.229,1506.130 C2335.728,1502.768 2329.625,1501.081 2322.921,1501.070 C2316.216,1501.058 2310.108,1502.723 2304.595,1506.065 C2299.082,1509.408 2294.681,1514.069 2291.401,1520.049 C2288.117,1526.029 2286.469,1533.090 2286.455,1541.231 C2286.441,1549.214 2288.064,1556.198 2291.327,1562.190 ZM2414.664,1479.682 L2425.679,1479.701 L2425.706,1464.377 C2425.713,1460.228 2427.114,1456.759 2429.914,1453.969 C2432.710,1451.183 2436.184,1449.790 2440.337,1449.797 C2444.486,1449.805 2447.877,1451.210 2450.506,1454.005 C2453.135,1456.805 2454.446,1460.279 2454.438,1464.428 L2454.411,1479.752 L2471.412,1479.782 C2475.243,1479.788 2478.432,1481.073 2480.983,1483.629 C2483.530,1486.189 2484.803,1489.383 2484.797,1493.214 C2484.790,1496.887 2483.505,1499.957 2480.949,1502.425 C2478.390,1504.897 2475.196,1506.126 2471.365,1506.120 L2454.365,1506.090 L2454.251,1570.977 C2454.247,1573.214 2454.681,1575.048 2455.558,1576.486 C2456.431,1577.924 2457.626,1578.966 2459.144,1579.605 C2460.658,1580.247 2462.293,1580.568 2464.051,1580.571 C2465.967,1580.575 2467.722,1580.219 2469.321,1579.503 C2470.916,1578.788 2472.753,1578.432 2474.830,1578.435 C2477.063,1578.439 2479.097,1579.483 2480.930,1581.559 C2482.759,1583.638 2483.675,1586.513 2483.668,1590.183 C2483.660,1594.654 2481.218,1598.320 2476.346,1601.184 C2471.470,1604.049 2466.241,1605.476 2460.655,1605.467 C2457.303,1605.461 2453.592,1605.177 2449.523,1604.609 C2445.453,1604.044 2441.624,1602.680 2438.037,1600.518 C2434.449,1598.357 2431.462,1595.041 2429.075,1590.566 C2426.689,1586.095 2425.502,1579.946 2425.516,1572.123 L2425.632,1506.039 L2414.618,1506.020 C2410.787,1506.013 2407.594,1504.732 2405.047,1502.172 C2402.496,1499.616 2401.226,1496.419 2401.233,1492.588 C2401.239,1488.918 2402.521,1485.848 2405.080,1483.376 C2407.636,1480.908 2410.833,1479.675 2414.664,1479.682 ZM2536.174,1483.607 C2546.001,1477.960 2556.979,1475.144 2569.112,1475.165 C2581.241,1475.186 2592.213,1478.041 2602.020,1483.723 C2611.827,1489.408 2619.632,1497.244 2625.444,1507.229 C2631.251,1517.217 2634.145,1528.756 2634.122,1541.843 C2634.099,1554.933 2631.164,1566.462 2625.322,1576.426 C2619.475,1586.393 2611.642,1594.161 2601.816,1599.729 C2591.989,1605.301 2581.007,1608.073 2568.878,1608.051 C2556.745,1608.030 2545.777,1605.220 2535.969,1599.613 C2526.162,1594.010 2518.353,1586.215 2512.545,1576.227 C2506.734,1566.243 2503.844,1554.704 2503.867,1541.613 C2503.890,1528.527 2506.821,1516.998 2512.667,1507.030 C2518.510,1497.067 2526.347,1489.257 2536.174,1483.607 ZM2537.471,1562.623 C2540.731,1568.615 2545.115,1573.291 2550.616,1576.653 C2556.117,1580.015 2562.220,1581.702 2568.924,1581.714 C2575.628,1581.725 2581.737,1580.060 2587.250,1576.718 C2592.763,1573.375 2597.160,1568.714 2600.444,1562.734 C2603.724,1556.754 2605.375,1549.776 2605.389,1541.792 C2605.404,1533.651 2603.777,1526.585 2600.518,1520.593 C2597.255,1514.602 2592.875,1509.925 2587.374,1506.563 C2581.872,1503.201 2575.770,1501.515 2569.065,1501.503 C2562.361,1501.491 2556.252,1503.156 2550.739,1506.499 C2545.226,1509.841 2540.826,1514.502 2537.545,1520.482 C2534.261,1526.463 2532.614,1533.523 2532.600,1541.664 C2532.585,1549.647 2534.208,1556.631 2537.471,1562.623 Z"/>
</svg>