<svg 
 xmlns="http://www.w3.org/2000/svg"
 xmlns:xlink="http://www.w3.org/1999/xlink"
 width="2637px" height="1349px">
<path fill-rule="evenodd"  fill="rgb(0, 0, 0)"
 d="M2414.369,438.950 C2417.784,706.435 1758.987,713.558 1756.360,404.482 C1754.113,131.625 2414.363,79.383 2414.369,438.950 ZM1621.256,429.967 C1614.115,817.614 2499.837,885.951 2522.880,479.039 C2528.372,382.040 2471.887,248.257 2499.1000,238.000 C2529.908,227.090 2606.081,294.979 2617.038,343.790 C2628.835,396.342 2630.958,468.200 2630.981,481.964 C2631.714,913.691 2656.716,1200.598 2588.373,1284.830 C2558.973,1321.065 2458.081,1317.378 2471.215,1291.619 C2507.323,1220.802 2527.158,1159.844 2521.023,1089.458 C2502.741,879.704 2322.504,848.847 2255.642,849.110 C2147.115,849.539 2064.676,875.662 2008.366,927.459 C1965.908,966.528 1943.077,1030.601 1929.479,1118.274 C1912.764,1226.028 1797.369,1212.187 1793.238,1117.327 C1791.319,1073.276 1792.841,962.433 1792.841,917.986 C1792.841,803.510 1663.235,814.757 1663.235,917.260 C1663.235,1051.890 1664.641,1143.233 1664.196,1199.170 C1663.834,1244.748 1700.996,1286.637 1721.168,1291.619 C1776.507,1305.289 1860.250,1294.905 1861.802,1332.638 C1862.838,1357.858 1698.099,1348.092 1637.496,1340.984 C1577.304,1333.924 1524.450,1288.854 1524.450,1182.670 C1524.450,1064.991 1522.905,831.585 1516.547,702.599 C1510.715,584.328 1447.982,645.094 1413.814,710.502 C1384.185,767.218 1332.918,862.850 1292.627,917.629 C1257.118,965.907 1157.117,999.856 1110.593,932.429 C970.380,729.218 908.515,561.809 898.1000,941.000 C895.037,1099.149 865.064,1290.446 824.1000,1328.000 C784.938,1365.553 745.159,1350.934 657.145,1234.034 C607.733,1168.408 377.074,833.631 334.962,828.385 C284.992,822.161 166.053,877.739 159.417,896.651 C152.782,915.563 150.142,1180.037 150.142,1246.527 C150.142,1382.495 3.945,1377.539 3.945,1242.577 C3.945,1068.688 0.749,295.896 -0.007,104.489 C-0.531,-27.270 146.192,-37.719 146.192,98.561 C146.192,204.679 148.135,536.138 148.135,670.328 C148.135,733.310 267.489,715.144 295.951,672.350 C382.572,542.109 502.520,369.741 564.879,267.503 C799.840,-117.719 895.442,-72.005 994.000,323.000 C1016.999,415.182 1053.832,567.801 1095.1000,640.1000 C1167.013,764.278 1226.415,775.354 1285.1000,651.000 C1339.715,538.892 1415.899,385.536 1480.985,258.090 C1601.906,21.315 1844.349,-18.512 2081.542,8.335 C2114.271,12.040 2128.281,50.183 2087.402,58.143 C1970.816,80.845 1627.444,93.973 1621.256,429.967 ZM716.1000,278.1000 C665.917,362.202 528.987,564.386 488.1000,628.1000 C438.906,709.950 486.765,783.518 519.030,829.731 C545.851,868.146 656.491,1004.656 713.121,1087.459 C738.509,1124.578 753.700,1107.211 755.039,1077.050 C761.827,924.176 795.902,399.100 803.544,286.730 C807.829,223.722 739.978,241.573 716.1000,278.1000 ZM2273.342,967.455 C2345.094,966.074 2404.175,1016.311 2404.550,1111.396 C2404.777,1167.902 2342.778,1191.923 2313.204,1199.210 C2253.283,1213.974 2343.237,1306.487 2274.195,1325.989 C2222.667,1340.543 2101.241,1356.987 2059.640,1316.236 C2018.039,1275.485 1977.375,973.147 2273.342,967.455 Z"/>
</svg>